<svg width="24" height="24" viewBox="0 0 24 24" fill="none" xmlns="http://www.w3.org/2000/svg">
<path d="M12 0C5.38336 0 0 5.38308 0 12C0 18.6169 5.38336 24 12 24C18.6169 24 24 18.6169 24 12C24 5.38308 18.6166 0 12 0ZM12 22.2482C6.34922 22.2482 1.75181 17.6508 1.75181 12C1.75181 6.34922 6.34922 1.75181 12 1.75181C17.6508 1.75181 22.2482 6.34917 22.2482 11.9997C22.2482 17.6508 17.6508 22.2482 12 22.2482Z" fill="black"/>
<path d="M16.0876 12H12.292V6.74456C12.292 6.26076 11.8999 5.86865 11.4161 5.86865C10.9323 5.86865 10.5402 6.26076 10.5402 6.74456V12.8759C10.5402 13.3597 10.9323 13.7519 11.4161 13.7519H16.0876C16.5714 13.7519 16.9635 13.3597 16.9635 12.8759C16.9635 12.3922 16.5714 12 16.0876 12Z" fill="black"/>
</svg>
