<svg width="60" height="60" viewBox="0 0 60 60" fill="none" xmlns="http://www.w3.org/2000/svg">
<path d="M41.3 30.3C42.4 29.2 43.9 28.5 45.4 28.5H47C47.1 28.5 47.2 28.5 47.3 28.5L52.9 22.9C53.1 22.6 53.2 22.3 53.1 21.9L51.2 3C51.2 2.4 50.8 2 49.9 1.6L31.3 0C30.9 0 30.6 0 30.3 0.2L3.40002 27.2C2.90002 27.7 2.90002 28.5 3.40002 29.1L24.2 49.7C24.7 50.2 25.5 50.2 26.1 49.7L39.8 36.1V34.3C39.7 32.8 40.3 31.4 41.3 30.3ZM38.8 11.1C38.8 10.4 39 9.7 39.5 9.2C40 8.7 40.7 8.4 41.4 8.5C42.1 8.5 42.9 8.7 43.4 9.2C43.9 9.7 44.2 10.5 44.1 11.2C44.2 11.9 43.9 12.7 43.4 13.2C42.9 13.7 42.1 14 41.4 13.9C40.7 13.9 40 13.6 39.5 13C39 12.5 38.8 11.8 38.8 11.1Z" fill="black"/>
<path d="M46.2 60C45.7 60 45.2 59.8 44.9 59.5L35 49.1C34.3 48.4 34.3 47.3 35 46.5L36.1 45.3C36.8 44.6 38 44.6 38.7 45.3L43.6 50.4V34.3C43.6 33.8 43.8 33.3 44.1 33C44.4 32.6 44.9 32.4 45.4 32.5H47C47.5 32.5 48 32.7 48.3 33C48.6 33.3 48.8 33.8 48.8 34.3V50.5L53.7 45.4C54 45 54.5 44.8 55 44.8C55.5 44.8 55.9 45 56.2 45.3L57.4 46.5C57.7 46.8 57.9 47.3 57.9 47.8C57.9 48.3 57.7 48.7 57.4 49.1L47.5 59.4C47.2 59.8 46.7 60 46.2 60Z" fill="black"/>
</svg>
