<svg width="163" height="60" viewBox="0 0 163 60" fill="none" xmlns="http://www.w3.org/2000/svg">
<path d="M31 28.3C31 28.9 31 29.4 31 30C31.1 33.5 29.7 36.8 27.2 39.2C24.9 41.7 21.5 43.1 18 43C17.6 43 17.1 43 16.7 43C13.5 42.7 10.6 41.3 8.4 38.8C3.7 33.7 3.9 25.8 8.8 20.9C11.1 18.4 14.5 17 18 17.1C21.2 17 24.3 18.1 26.7 20.3C29.1 22.2 30.6 25.1 31 28.3Z" fill="#00AA6C"/>
<path d="M61.8 28.2C62.4 32.3 61 36.3 58.1 39.2C55.8 41.7 52.5 43.1 49 43H47.7C44.6 42.7 41.5 41.3 39.4 38.8C34.7 33.7 34.9 25.8 39.8 20.9C44.7 16 52.4 15.8 57.6 20.3C59.9 22.3 61.4 25.1 61.8 28.2Z" fill="#00AA6C"/>
<path d="M93 28.2C93 28.8 93 29.3 93 29.9C93 37.1 87.2 42.9 80 42.9C79.6 42.9 79.1 42.9 78.7 42.8C71.6 42.1 66.4 35.7 67.1 28.5C67.4 25.5 68.7 22.8 70.8 20.7C75.7 15.8 83.4 15.6 88.6 20.1C91 22.2 92.6 25 93 28.2Z" fill="#00AA6C"/>
<path d="M124 28.3C124 28.9 124 29.4 124 30C124 37.2 118.2 43 111 43C110.6 43 110.1 43 109.7 42.9C106.6 42.6 103.6 41.2 101.4 38.7C96.6 33.4 96.9 25.1 102.3 20.4C104.6 18.2 107.8 17 111 17C117.6 17 123.1 21.8 124 28.3Z" fill="#00AA6C"/>
<path d="M136.2 38.6C134.8 37.6 133.7 36.4 132.8 34.9C131.9 33.4 131.5 31.7 131.6 30C131.6 24.3 136.3 19.6 142.1 19.5C144.2 19.5 146.3 20.1 147.9 21.3C149.3 22.3 150.4 23.5 151.3 25C152.1 26.5 152.5 28.2 152.5 29.9C152.5 30.5 152.4 31.1 152.3 31.7L154.7 32.5C154.9 31.6 155 30.8 155 29.8C155 22.6 149.2 16.8 142 16.8C134.8 16.8 129 22.6 129 29.8C129 33.1 130.1 36.1 132.4 38.5C134.5 40.8 137.5 42.4 140.6 42.7H141.9H142.3L141.4 40.2C139.7 40.3 137.8 39.7 136.2 38.6Z" fill="#00AA6C"/>
<path d="M154.2 41.5L158.7 37L155.8 36.1L153 35.1L142.2 31.5L145.4 41.3L146.4 44.1L147.7 48L152.1 43.5L159.6 51L161.7 49L154.2 41.5Z" fill="black"/>
</svg>
