<svg width="60" height="60" viewBox="0 0 60 60" fill="none" xmlns="http://www.w3.org/2000/svg">
<g clip-path="url(#clip0)">
<path d="M46.5 24.6V13.5H13.8V24.6L29.7 19.5H30.6L46.5 24.6ZM57 28.8C57.2 29.5 57.3 30.2 57.3 30.9L52.2 48C52 48.7 51.4 49.2 50.7 49.2C47.4 48.9 44.3 47.4 42 45C41.7 44.7 41.4 44.6 41 44.6C40.6 44.6 40.2 44.7 40 45C37 48 33.7 49.5 30.1 49.5C26.3 49.3 22.8 47.7 20.1 45C19.8 44.7 19.4 44.5 19 44.5C18.6 44.5 18.3 44.7 18 45C15.7 47.4 12.6 48.9 9.40001 49.2C8.80001 49.2 8.30001 48.8 7.90001 48L2.70001 30.9C2.60001 30.2 2.70001 29.5 3.00001 28.8C3.30001 28.1 3.80001 27.6 4.50001 27.3L8.10001 26.1V9.6C8.10001 9.2 8.30001 8.9 8.50001 8.6C8.80001 8.3 9.10001 8.1 9.60001 8.1H19.5C19.9 8.1 20.3 8 20.6 7.7C20.9 7.4 21 7 21 6.6V1.6C21 1.2 21.1 0.7 21.4 0.4C21.7 0.1 22.1 0 22.4 0H37.4C37.8 0 38.1 0.2 38.4 0.4C38.8 0.7 39 1.1 39 1.5V6.6C39 7 39.1 7.4 39.4 7.7C39.7 8 40.1 8.1 40.5 8.1H50.4C51.1 8 51.8 8.5 51.9 9.2C51.9 9.3 51.9 9.4 51.9 9.6V26.1L55.6 27.3C56.2 27.6 56.7 28.1 57 28.8Z" fill="black"/>
<path d="M51.8 54.6H55.5C56.2 54.5 56.9 55 57 55.7C57 55.8 57 56 57 56.1V58.5C57 58.9 56.9 59.3 56.6 59.6C56.3 59.9 55.9 60 55.5 60H51.6C48.1 59.9 44.6 59.1 41.4 57.6C41.1 57.3 40.6 57.2 40.3 57.5L40.2 57.6C33.6 60.6 26.1 60.6 19.5 57.6C19.3 57.3 18.8 57.2 18.5 57.4C18.4 57.5 18.4 57.5 18.3 57.6C15.2 59.2 11.7 60 8.1 60H4.2C3.2 60 2.7 59.5 2.7 58.5V56.1C2.6 55.4 3.1 54.7 3.8 54.6C3.9 54.6 4 54.6 4.2 54.6H8.4C12 54.7 15.6 53.6 18.6 51.6C18.9 51.3 19.4 51.3 20.1 51.6C23.1 53.6 26.5 54.6 30.1 54.6C33.7 54.6 37.2 53.6 40.2 51.6C40.5 51.3 41 51.3 41.7 51.6C44.7 53.5 48.2 54.5 51.8 54.6Z" fill="black"/>
</g>
<defs>
<clipPath id="clip0">
<rect width="60" height="60" fill="white"/>
</clipPath>
</defs>
</svg>
